<svg xmlns="http://www.w3.org/2000/svg" viewBox="0 0 400 200" role="img" class="story-art-svg">
  <rect x="0" y="0" width="400" height="200" rx="10" fill="var(--art-sky)"/>
  <path d="M0 140 C60 130 110 156 170 146 S268 128 322 144 S382 156 400 150 L400 200 L0 200 Z" fill="var(--art-water)"/>
  <path d="M332 116 C354 110 374 116 400 110 L400 200 L320 200 Z" fill="var(--art-bank)"/>
  <g transform="translate(92 48)">
    <ellipse cx="0" cy="0" rx="28" ry="16" fill="var(--art-pale)" stroke="var(--art-ink)" stroke-width="1.6"/>
    <path d="M-17 -5 q19 -21 36 -2 q-17 11 -36 2 Z" fill="var(--art-water-far)" stroke="var(--art-ink)" stroke-width="1.4" stroke-linejoin="round"/>
    <path d="M-27 2 q-14 5 -20 14 q16 -3 24 -8 Z" fill="var(--art-pale)" stroke="var(--art-ink)" stroke-width="1.4" stroke-linejoin="round"/>
    <circle cx="20" cy="-6" r="2.1" fill="var(--art-ink)"/>
    <path d="M27 -4 l11 3 l-11 4 Z" fill="var(--art-accent)"/>
  </g>
  <path d="M118 82 q7 16 3 30" stroke="var(--art-leaf-vein)" stroke-width="2.2" fill="none" stroke-linecap="round" stroke-dasharray="4 7"/>
  <g transform="translate(196 132) rotate(-8)">
    <ellipse cx="0" cy="0" rx="56" ry="17" fill="var(--art-leaf)"/>
    <path d="M-56 0 L56 0" stroke="var(--art-leaf-vein)" stroke-width="2.2" stroke-linecap="round"/>
    <g stroke="var(--art-leaf-vein)" stroke-width="1.5" stroke-linecap="round" opacity="0.9" fill="none">
      <path d="M-28 0 l-11 -8"/><path d="M-7 0 l-9 -9"/><path d="M15 0 l-7 -9"/><path d="M34 0 l-5 -8"/>
    </g>
  </g>
  <g fill="var(--art-ink)" transform="translate(190 114) scale(1.35)">
    <ellipse cx="-12" cy="0" rx="6.5" ry="5.5"/>
    <ellipse cx="0" cy="0" rx="4.5" ry="4"/>
    <ellipse cx="10" cy="-1" rx="7.5" ry="6.5"/>
    <circle cx="13" cy="-5" r="1.6" fill="var(--art-pale)"/>
    <g stroke="var(--art-ink)" stroke-width="1.7" stroke-linecap="round" fill="none">
      <path d="M-3 4 L-7 11"/><path d="M1 4 L2 12"/><path d="M6 3 L11 11"/>
      <path d="M14 -8 L20 -14"/><path d="M17 -6 L24 -10"/>
    </g>
  </g>
</svg>
